<svg xmlns="http://www.w3.org/2000/svg" width="42" height="42"><g data-name="user place holder"><g data-name="Rectangle 3" fill="#fff" stroke="#dddfe1"><rect width="42" height="42" rx="5" stroke="none"/><rect x=".5" y=".5" width="41" height="41" rx="4.5" fill="none"/></g><g data-name="Group 51" fill="#dddfe1"><path data-name="Path 80" d="M35 30.734v-2.156a1.919 1.919 0 00-.477-1.536c-.034-.192-.079-.26-.25-.312a6.659 6.659 0 01-.39-.136 36.304 36.304 0 01-1.231-.494 195.104 195.104 0 01-3.426-1.474c-.554-.243-1.113-.487-1.663-.731l-1.025-.457-.417-.186c-.209-.093-.021-.056-.059-.2-.018-.067-.218-.183-.269-.226l-.458-.384c-.134-.112-.108-.221-.122-.4-.028-.38-.056-.761-.067-1.142 0-.127-.006-.255-.005-.382s.1-.224.157-.326a8.749 8.749 0 00.4-.853 12.433 12.433 0 00.575-1.827c.387.223.755-.278.935-.554a5.624 5.624 0 00.6-1.33 5.821 5.821 0 00.294-1.379c.017-.22.062-.686-.227-.759.074.018.15.033.223.054a7.898 7.898 0 00-.46-.111c.074.016.147.035.221.053a.854.854 0 00-.76.125 15.349 15.349 0 00.521-3.928 3.764 3.764 0 00-1.324-3.233.89.89 0 00.095-1.34 2.486 2.486 0 00-.751-.559c-.249.9-1.663.786-2.365.77a44.7 44.7 0 00-4.552-.055 5.022 5.022 0 00-3.14 1.1 4.946 4.946 0 00-1.333 2.222 9.289 9.289 0 00-.383 2.374 5.36 5.36 0 00.475 2.767c-.219-.319-.888-.459-1.069-.032a2.3 2.3 0 00.094 1.338 6.424 6.424 0 00.692 1.8c.18.307.546.907.984.7a9.575 9.575 0 001.28 3.016 3.443 3.443 0 00.378.493.391.391 0 01.162.331c0 .235 0 .469-.006.7 0 .112.036.226-.064.289a.366.366 0 00-.043.031l-.552.463-.223.187c-.079.066.132.108-.057.188-.848.359-1.7.721-2.538 1.094l.02.036a234.41 234.41 0 01-3.855 1.666c-.465.195-.931.389-1.4.566-.131.049-.263.1-.4.138-.217.065-.156.217-.294.362-.619.645-.424 1.86-.424 2.681v.992a18.526 18.526 0 0027.971-.033zm-20.538-16.8l.039.059c-.008-.014.131.269-.039-.063z"/><path data-name="Path 81" d="M34.523 27.041c.292.274-.03-.171 0 0z"/></g></g></svg>